<svg id="Capa_1" enable-background="new 0 0 512 512" height="512" viewBox="0 0 512 512" width="512" xmlns="http://www.w3.org/2000/svg"><g><g><path d="m136.348 333.455-98.816 36.383 31.605 73.147 30.221 9.78z" fill="#ffe07d"/><path d="m141.907 331.408-10.888 4.009-35.951 115.959 54.243 17.555 30.794-99.324z" fill="#ffd064"/><g><g><g><g><path d="m126.638 256.406 52.232.152 73.396-112.754-92.703-.269c-18.582-.054-35.928 9.302-46.089 24.86l-62.66 95.94c-7.939 12.156 5.665 26.84 18.391 19.85l44.637-24.517c3.92-2.153 8.323-3.275 12.796-3.262z" fill="#e07f84"/></g><g><path d="m255.108 384.876-.152-52.232 112.754-73.396.269 92.703c.054 18.582-9.302 35.928-24.86 46.089l-95.94 62.66c-12.156 7.939-26.84-5.665-19.85-18.391l24.517-44.637c2.152-3.92 3.275-8.323 3.262-12.796z" fill="#e07f84"/></g></g><g><path d="m321.981 238.167c52.446-35.872 93.097-86.314 116.606-143.345-4.159-3.489-8.196-7.184-12.098-11.086-16.69-16.69-29.597-35.846-38.794-56.517l-7.348-.872c-60.451 22.41-113.716 64.01-151.236 118.866l-87.35 127.71-1.178 10.154 47.008 47.008z" fill="#eaf2ff"/><g><path d="m187.592 330.086 7.025-4.805-51.962-51.963-23.212 33.937c-3.892 5.69-3.18 13.345 1.695 18.22l21.788 21.788c4.253 4.253 10.905 4.938 15.936 1.643z" fill="#e07f84"/></g><path d="m459.97 15.623-5.547-7.379-27.467 5.472c-15.559 3.1-30.839 7.486-45.715 13.025 9.3 22.877 23.017 44.05 41.249 62.282 4.353 4.353 8.873 8.447 13.544 12.286.779-2.064 19.564-42.331 23.936-85.686z" fill="#e07f84"/><path d="m432.855 89.387c-23.071 57.026-63.486 107.497-115.796 143.276l-134.898 92.267 43.759 43.759 12.276.171 127.71-87.35c54.896-37.548 96.468-90.731 118.866-151.236l-2.694-8.17c-17.761-8.126-34.372-19.016-49.223-32.717z" fill="#dbe8f9"/><g fill="#db636e"><path d="m155.411 343.225c-5.69 3.892-13.345 3.18-18.22-1.695l48.847 48.847c4.875 4.875 12.53 5.587 18.22 1.695l33.937-23.213-48.847-48.847z"/><path d="m494.378.284-39.956 7.961-5.472 27.467c-4.131 20.736-10.533 40.98-18.942 60.419 16.445 14.729 34.964 26.094 54.763 34.143 5.54-14.875 9.926-30.156 13.026-45.715l13.433-67.423c1.995-10.019-6.834-18.848-16.852-16.852z"/></g></g></g><path d="m279.973 182.053c.106-.001.212-.001.317.003 1.289.042 2.381.96 2.73 2.202 1.421 5.066 3.449 9.878 6.003 14.35.662 1.158.502 2.62-.419 3.585-.03.032-.061.063-.092.095l-.002.002c-2.717 2.717-2.71 7.125.017 9.833l11.191 11.113c2.737 2.719 7.154 2.725 9.899.015l.002-.002c.03-.03.06-.06.091-.09.959-.931 2.423-1.1 3.588-.445 4.488 2.521 9.311 4.514 14.384 5.899 1.247.341 2.176 1.428 2.225 2.72.004.103.006.206.005.31-.002.3.016.596.052.885 30.745-22.418 57.141-49.937 78.033-80.833-.91-.316-1.627-1.085-1.897-2.048-1.421-5.066-3.449-9.876-6.002-14.348-.662-1.159-.503-2.622.419-3.586.03-.032.06-.063.091-.094l.002-.002c2.705-2.74 2.682-7.152-.049-9.865l-11.257-11.178c-2.723-2.704-7.128-2.665-9.804.084-.031.031-.062.062-.094.093-.958.929-2.419 1.098-3.582.444-4.49-2.522-9.315-4.517-14.391-5.902-1.245-.34-2.171-1.426-2.222-2.715-.004-.105-.006-.211-.005-.317.026-3.819-3.171-6.882-6.989-6.869l-15.817.055c-3.792.013-6.994 3.127-6.941 6.919.001.042.001.085.001.127-.006 1.37-.93 2.561-2.249 2.932-5.05 1.42-9.846 3.444-14.305 5.99-1.19.679-2.688.471-3.662-.492l-.019-.018-.002-.002c-2.741-2.704-7.152-2.682-9.865.05l-11.13 11.208c-2.71 2.73-2.695 7.14.035 9.85l.002.002c.031.031.062.062.092.093.929.958 1.098 2.42.445 3.583-2.519 4.485-4.512 9.304-5.897 14.374-.357 1.305-1.527 2.221-2.879 2.242-.053.001-.105.001-.158.001-3.791-.027-6.882 3.198-6.868 6.99l.055 15.817c.014 3.818 3.1 6.993 6.918 6.94zm42.309-37.378c12.304-12.304 32.253-12.304 44.557 0s12.304 32.253 0 44.557-32.253 12.304-44.557 0c-12.303-12.305-12.303-32.253 0-44.557z" fill="#c9e0fd"/></g><g><path d="m177.227 479.792c-.113-.01-.225-.019-.337-.025-4.764-.274-9.099-2.699-11.672-6.718-2.828-4.417-6.171-8.6-10.033-12.462-12.463-12.463-28.261-19.548-44.521-21.279-4.895-19.11-19.933-34.156-39.038-39.061-1.736-16.251-8.82-32.039-21.276-44.495-3.416-3.416-7.11-6.427-11.007-9.038-4.026-2.697-6.388-7.236-6.604-12.077-.007-.149-.015-.299-.026-.449-.577-7.995-7.159-14.493-15.161-14.943-8.885-.499-16.304 6.197-17 14.793-.022-.001-.044-.003-.066-.004v154.213c0 13.107 10.618 23.732 23.724 23.734 47.8.007 150.074.019 151.595.019 9.147 0 16.516-7.611 16.12-16.845-.343-7.997-6.724-14.673-14.698-15.363z" fill="#ffd064"/></g></g><path d="m416.121 174.611-.055-15.817c-.013-3.819-3.099-6.995-6.917-6.941-.106.002-.212.001-.317-.003-1.29-.041-2.383-.96-2.731-2.203-.546-1.946-1.208-3.842-1.929-5.708-21.101 32.085-48.159 60.609-79.899 83.628 1.124.376 2.258.731 3.41 1.045 1.247.341 2.176 1.428 2.225 2.72.004.103.006.207.005.31-.026 3.82 3.17 6.885 6.99 6.871l15.817-.055c3.792-.013 6.994-3.127 6.941-6.919-.013-.903.153-1.776.463-2.584 5.708-1.428 11.111-3.62 16.093-6.465 1.158-.661 2.619-.502 3.583.419.032.031.064.061.095.093l.002.002c2.73 2.71 7.14 2.695 9.85-.035l11.161-11.239c2.708-2.727 2.686-7.135-.05-9.835l-.002-.002c-.032-.031-.063-.063-.094-.095-.928-.957-1.097-2.417-.444-3.579 2.81-5.002 4.965-10.421 6.353-16.138.806-.315 1.678-.487 2.581-.481 3.791.026 6.883-3.197 6.869-6.989z" fill="#bcd6f9"/></g></svg>